<svg xmlns="http://www.w3.org/2000/svg" version="1.1" xmlns:xlink="http://www.w3.org/1999/xlink" xmlns:svgjs="http://svgjs.dev/svgjs" width="1500" height="1603" viewBox="0 0 1500 1603"><g transform="matrix(1,0,0,1,-0.1927463269320242,-2.585483870967778)"><svg viewBox="0 0 232 248" data-background-color="#4b91f1" preserveAspectRatio="xMidYMid meet" height="1603" width="1500" xmlns="http://www.w3.org/2000/svg" xmlns:xlink="http://www.w3.org/1999/xlink"><g id="tight-bounds" transform="matrix(1,0,0,1,0.029811431898821183,0.4000000000000057)"><svg viewBox="0 0 231.94037713620236 247.2" height="247.2" width="231.94037713620236"><g><svg viewBox="0 0 397.4975999999999 423.64942203356827" height="247.2" width="231.94037713620236"><g transform="matrix(1,0,0,1,0,235.9017035514517)"><svg viewBox="0 0 397.4975999999999 187.7477184821166" height="187.7477184821166" width="397.4975999999999"><g id="textblocktransform"><svg viewBox="0 0 397.4975999999999 187.7477184821166" height="187.7477184821166" width="397.4975999999999" id="textblock"><g><rect width="397.4975999999999" height="9.163910453197316" x="0" y="112.41201086570366" fill="#ffffff" opacity="1" stroke-width="0" stroke="transparent" fill-opacity="1" class="rect-yte-0" data-fill-palette-color="primary" rx="1%" id="yte-0" data-palette-color="#ffffff"></rect></g><g transform="matrix(1,0,0,1,0.9887999999999693,0)"><svg viewBox="0 0 395.52 101.6168283946597" height="101.6168283946597" width="395.52"><g transform="matrix(1,0,0,1,0,0)"><svg width="395.52" viewBox="5.35 -38.6 153.54 39.45" height="101.6168283946597" data-palette-color="#ffffff"><path d="M5.35 0L5.35-37.9 10.2-37.9 10.2 0 5.35 0ZM45.25-37.9L45.25-33.55 33.85-33.55 33.85 0 28.95 0 28.95-33.55 17.55-33.55 17.55-37.9 45.25-37.9ZM77.55 0L73.45-11.05 57.65-11.05 53.6 0 48.6 0 62.85-38.35 68.25-38.35 82.55 0 77.55 0ZM59.3-15.4L71.8-15.4 65.55-32.3 59.3-15.4ZM119.19-37.9L124.54-37.9 124.54 0 119.69 0 119.69-30.55 108.09-14.4 105.54-14.4 94.04-30.55 94.04 0 89.19 0 89.19-37.9 94.49-37.9 106.84-20.6 119.19-37.9ZM145.99 0.85Q138.74 0.85 133.04-1.85L133.04-1.85 133.04-6.45Q138.79-3.4 145.99-3.4L145.99-3.4Q150.14-3.4 152.07-5.15 153.99-6.9 153.99-9.75L153.99-9.75Q153.99-12.45 152.22-13.8 150.44-15.15 146.99-16.15L146.99-16.15 143.59-17.1Q140.69-17.95 138.64-19.05 136.59-20.15 135.22-22.23 133.84-24.3 133.84-27.65L133.84-27.65Q133.84-33 136.97-35.8 140.09-38.6 145.84-38.6L145.84-38.6Q149.19-38.6 151.74-37.98 154.29-37.35 157.04-36.1L157.04-36.1 157.04-31.6Q151.94-34.35 145.84-34.35L145.84-34.35Q142.14-34.35 140.44-32.63 138.74-30.9 138.74-27.9L138.74-27.9Q138.79-25.15 140.42-23.85 142.04-22.55 145.49-21.55L145.49-21.55 148.94-20.6Q151.99-19.75 154.12-18.63 156.24-17.5 157.57-15.38 158.89-13.25 158.89-9.85L158.89-9.85Q158.84-4.9 155.42-2.02 151.99 0.85 145.99 0.85L145.99 0.85Z" opacity="1" transform="matrix(1,0,0,1,0,0)" fill="#ffffff" class="wordmark-text-0" data-fill-palette-color="primary" id="text-0"></path></svg></g></svg></g><g transform="matrix(1,0,0,1,0.9887999999999977,132.37110378994493)"><svg viewBox="0 0 395.5199999999999 55.37661469217167" height="55.37661469217167" width="395.5199999999999"><g transform="matrix(1,0,0,1,0,0)"><svg width="395.5199999999999" viewBox="-0.1 -32.7 311.02000000000004 43.550000000000004" height="55.37661469217167" data-palette-color="#ffffff"><path d="M10.85-17.4L10.85-17.4 9.7-13.4 18.05-13.4 16.9-17.4Q16.1-20 15.38-22.75 14.65-25.5 13.95-28.2L13.95-28.2 13.75-28.2Q13.05-25.45 12.35-22.73 11.65-20 10.85-17.4ZM5.8 0L-0.1 0 10.55-32.7 17.35-32.7 28 0 21.9 0 19.35-8.85 8.35-8.85 5.8 0ZM39.3 0.6L39.3 0.6Q36.75 0.6 34.27-0.38 31.8-1.35 30-2.8L30-2.8 32.7-6.5Q34.35-5.2 35.97-4.48 37.6-3.75 39.5-3.75L39.5-3.75Q41.5-3.75 42.45-4.58 43.4-5.4 43.4-6.7L43.4-6.7Q43.4-7.45 42.95-8.03 42.5-8.6 41.75-9.05 41-9.5 40.05-9.88 39.1-10.25 38.15-10.65L38.15-10.65Q36.95-11.1 35.7-11.7 34.45-12.3 33.47-13.15 32.5-14 31.87-15.13 31.25-16.25 31.25-17.8L31.25-17.8Q31.25-21.05 33.65-23.1 36.05-25.15 40.2-25.15L40.2-25.15Q42.75-25.15 44.8-24.25 46.85-23.35 48.35-22.2L48.35-22.2 45.7-18.7Q44.4-19.65 43.07-20.23 41.75-20.8 40.3-20.8L40.3-20.8Q38.45-20.8 37.57-20.03 36.7-19.25 36.7-18.1L36.7-18.1Q36.7-17.35 37.12-16.82 37.55-16.3 38.25-15.9 38.95-15.5 39.87-15.15 40.8-14.8 41.8-14.45L41.8-14.45Q43.05-14 44.3-13.43 45.55-12.85 46.57-12 47.6-11.15 48.22-9.93 48.85-8.7 48.85-7L48.85-7Q48.85-5.4 48.22-4.03 47.6-2.65 46.4-1.63 45.2-0.6 43.4 0 41.6 0.6 39.3 0.6ZM60.84 0.6L60.84 0.6Q58.3 0.6 55.82-0.38 53.34-1.35 51.55-2.8L51.55-2.8 54.24-6.5Q55.89-5.2 57.52-4.48 59.14-3.75 61.05-3.75L61.05-3.75Q63.05-3.75 63.99-4.58 64.94-5.4 64.94-6.7L64.94-6.7Q64.94-7.45 64.5-8.03 64.05-8.6 63.3-9.05 62.55-9.5 61.59-9.88 60.64-10.25 59.7-10.65L59.7-10.65Q58.49-11.1 57.24-11.7 55.99-12.3 55.02-13.15 54.05-14 53.42-15.13 52.8-16.25 52.8-17.8L52.8-17.8Q52.8-21.05 55.2-23.1 57.59-25.15 61.74-25.15L61.74-25.15Q64.3-25.15 66.34-24.25 68.39-23.35 69.89-22.2L69.89-22.2 67.25-18.7Q65.94-19.65 64.62-20.23 63.3-20.8 61.84-20.8L61.84-20.8Q59.99-20.8 59.12-20.03 58.24-19.25 58.24-18.1L58.24-18.1Q58.24-17.35 58.67-16.82 59.09-16.3 59.8-15.9 60.49-15.5 61.42-15.15 62.34-14.8 63.34-14.45L63.34-14.45Q64.59-14 65.84-13.43 67.09-12.85 68.12-12 69.14-11.15 69.77-9.93 70.39-8.7 70.39-7L70.39-7Q70.39-5.4 69.77-4.03 69.14-2.65 67.94-1.63 66.75-0.6 64.94 0 63.14 0.6 60.84 0.6ZM86.04 0.6L86.04 0.6Q83.49 0.6 81.29-0.28 79.09-1.15 77.44-2.8 75.79-4.45 74.87-6.83 73.94-9.2 73.94-12.25L73.94-12.25Q73.94-15.25 74.89-17.65 75.84-20.05 77.42-21.7 78.99-23.35 81.04-24.25 83.09-25.15 85.24-25.15L85.24-25.15Q87.74-25.15 89.64-24.3 91.54-23.45 92.82-21.9 94.09-20.35 94.74-18.2 95.39-16.05 95.39-13.5L95.39-13.5Q95.39-12.65 95.32-11.9 95.24-11.15 95.14-10.7L95.14-10.7 79.54-10.7Q79.94-7.4 81.87-5.63 83.79-3.85 86.79-3.85L86.79-3.85Q88.39-3.85 89.77-4.33 91.14-4.8 92.49-5.65L92.49-5.65 94.44-2.05Q92.69-0.9 90.54-0.15 88.39 0.6 86.04 0.6ZM79.49-14.6L79.49-14.6 90.39-14.6Q90.39-17.45 89.17-19.07 87.94-20.7 85.39-20.7L85.39-20.7Q83.19-20.7 81.54-19.15 79.89-17.6 79.49-14.6ZM109.04 0.6L109.04 0.6Q106.89 0.6 105.42-0.05 103.94-0.7 103.02-1.88 102.09-3.05 101.67-4.67 101.24-6.3 101.24-8.3L101.24-8.3 101.24-20 97.74-20 97.74-24.3 101.54-24.55 102.24-31.25 107.04-31.25 107.04-24.55 113.29-24.55 113.29-20 107.04-20 107.04-8.3Q107.04-4 110.49-4L110.49-4Q111.14-4 111.82-4.15 112.49-4.3 113.04-4.55L113.04-4.55 114.04-0.3Q113.04 0.05 111.77 0.33 110.49 0.6 109.04 0.6ZM134.19 0L128.94 0 128.94-32.7 135.49-32.7 141.29-16.7Q141.84-15.15 142.34-13.53 142.84-11.9 143.39-10.3L143.39-10.3 143.59-10.3Q144.14-11.9 144.61-13.53 145.09-15.15 145.64-16.7L145.64-16.7 151.29-32.7 157.89-32.7 157.89 0 152.54 0 152.54-14.95Q152.54-16.1 152.61-17.45 152.69-18.8 152.79-20.18 152.89-21.55 153.04-22.88 153.19-24.2 153.29-25.35L153.29-25.35 153.09-25.35 150.44-17.75 145.09-3.05 141.64-3.05 136.24-17.75 133.64-25.35 133.44-25.35Q133.54-24.2 133.66-22.88 133.79-21.55 133.91-20.18 134.04-18.8 134.11-17.45 134.19-16.1 134.19-14.95L134.19-14.95 134.19 0ZM171.63 0.6L171.63 0.6Q168.38 0.6 166.38-1.38 164.38-3.35 164.38-6.6L164.38-6.6Q164.38-8.55 165.21-10.08 166.03-11.6 167.81-12.7 169.58-13.8 172.31-14.55 175.03-15.3 178.83-15.7L178.83-15.7Q178.78-16.65 178.56-17.53 178.33-18.4 177.81-19.07 177.28-19.75 176.43-20.13 175.58-20.5 174.33-20.5L174.33-20.5Q172.53-20.5 170.81-19.8 169.08-19.1 167.43-18.1L167.43-18.1 165.33-21.95Q167.38-23.25 169.93-24.2 172.48-25.15 175.43-25.15L175.43-25.15Q180.03-25.15 182.31-22.43 184.58-19.7 184.58-14.55L184.58-14.55 184.58 0 179.83 0 179.43-2.7 179.23-2.7Q177.58-1.3 175.71-0.35 173.83 0.6 171.63 0.6ZM173.48-3.9L173.48-3.9Q174.98-3.9 176.21-4.6 177.43-5.3 178.83-6.6L178.83-6.6 178.83-12.1Q176.33-11.8 174.63-11.3 172.93-10.8 171.88-10.18 170.83-9.55 170.38-8.75 169.93-7.95 169.93-7.05L169.93-7.05Q169.93-5.4 170.93-4.65 171.93-3.9 173.48-3.9ZM197.23 0L191.48 0 191.48-24.55 196.23-24.55 196.63-21.25 196.83-21.25Q198.48-22.85 200.41-24 202.33-25.15 204.88-25.15L204.88-25.15Q208.83-25.15 210.63-22.63 212.43-20.1 212.43-15.4L212.43-15.4 212.43 0 206.68 0 206.68-14.65Q206.68-17.7 205.78-18.95 204.88-20.2 202.83-20.2L202.83-20.2Q201.23-20.2 200.01-19.43 198.78-18.65 197.23-17.15L197.23-17.15 197.23 0ZM225.43 0.6L225.43 0.6Q222.18 0.6 220.18-1.38 218.18-3.35 218.18-6.6L218.18-6.6Q218.18-8.55 219-10.08 219.83-11.6 221.6-12.7 223.38-13.8 226.1-14.55 228.83-15.3 232.63-15.7L232.63-15.7Q232.58-16.65 232.35-17.53 232.13-18.4 231.6-19.07 231.08-19.75 230.23-20.13 229.38-20.5 228.13-20.5L228.13-20.5Q226.33-20.5 224.6-19.8 222.88-19.1 221.23-18.1L221.23-18.1 219.13-21.95Q221.18-23.25 223.73-24.2 226.28-25.15 229.23-25.15L229.23-25.15Q233.83-25.15 236.1-22.43 238.38-19.7 238.38-14.55L238.38-14.55 238.38 0 233.63 0 233.23-2.7 233.03-2.7Q231.38-1.3 229.5-0.35 227.63 0.6 225.43 0.6ZM227.28-3.9L227.28-3.9Q228.78-3.9 230-4.6 231.23-5.3 232.63-6.6L232.63-6.6 232.63-12.1Q230.13-11.8 228.43-11.3 226.73-10.8 225.68-10.18 224.63-9.55 224.18-8.75 223.73-7.95 223.73-7.05L223.73-7.05Q223.73-5.4 224.73-4.65 225.73-3.9 227.28-3.9ZM253.83 10.85L253.83 10.85Q251.63 10.85 249.75 10.45 247.88 10.05 246.53 9.25 245.18 8.45 244.4 7.25 243.63 6.05 243.63 4.45L243.63 4.45Q243.63 2.9 244.53 1.58 245.43 0.25 247.13-0.8L247.13-0.8 247.13-1Q246.18-1.6 245.55-2.6 244.93-3.6 244.93-5.1L244.93-5.1Q244.93-6.55 245.75-7.73 246.58-8.9 247.63-9.65L247.63-9.65 247.63-9.85Q246.38-10.8 245.4-12.48 244.43-14.15 244.43-16.35L244.43-16.35Q244.43-18.45 245.23-20.1 246.03-21.75 247.35-22.88 248.68-24 250.43-24.58 252.18-25.15 254.13-25.15L254.13-25.15Q255.13-25.15 256.05-24.98 256.98-24.8 257.73-24.55L257.73-24.55 266.53-24.55 266.53-20.3 262.03-20.3Q262.63-19.6 263.03-18.53 263.43-17.45 263.43-16.15L263.43-16.15Q263.43-14.1 262.7-12.55 261.98-11 260.73-9.95 259.48-8.9 257.78-8.35 256.08-7.8 254.13-7.8L254.13-7.8Q253.33-7.8 252.48-7.95 251.63-8.1 250.78-8.45L250.78-8.45Q250.23-7.95 249.9-7.45 249.58-6.95 249.58-6.1L249.58-6.1Q249.58-5.05 250.45-4.45 251.33-3.85 253.58-3.85L253.58-3.85 257.93-3.85Q262.38-3.85 264.65-2.43 266.93-1 266.93 2.2L266.93 2.2Q266.93 4 266 5.6 265.08 7.2 263.38 8.35 261.68 9.5 259.25 10.18 256.83 10.85 253.83 10.85ZM254.13-11.4L254.13-11.4Q255.88-11.4 257.13-12.68 258.38-13.95 258.38-16.35L258.38-16.35Q258.38-18.65 257.15-19.93 255.93-21.2 254.13-21.2L254.13-21.2Q252.33-21.2 251.08-19.95 249.83-18.7 249.83-16.35L249.83-16.35Q249.83-13.95 251.08-12.68 252.33-11.4 254.13-11.4ZM254.73 7.1L254.73 7.1Q257.73 7.1 259.55 5.93 261.38 4.75 261.38 3.15L261.38 3.15Q261.38 1.7 260.25 1.2 259.13 0.7 257.03 0.7L257.03 0.7 253.68 0.7Q251.68 0.7 250.33 0.35L250.33 0.35Q248.43 1.8 248.43 3.6L248.43 3.6Q248.43 5.25 250.1 6.18 251.78 7.1 254.73 7.1ZM280.97 0.6L280.97 0.6Q278.42 0.6 276.22-0.28 274.02-1.15 272.37-2.8 270.72-4.45 269.8-6.83 268.87-9.2 268.87-12.25L268.87-12.25Q268.87-15.25 269.82-17.65 270.77-20.05 272.35-21.7 273.92-23.35 275.97-24.25 278.02-25.15 280.17-25.15L280.17-25.15Q282.67-25.15 284.57-24.3 286.47-23.45 287.75-21.9 289.02-20.35 289.67-18.2 290.32-16.05 290.32-13.5L290.32-13.5Q290.32-12.65 290.25-11.9 290.17-11.15 290.07-10.7L290.07-10.7 274.47-10.7Q274.87-7.4 276.8-5.63 278.72-3.85 281.72-3.85L281.72-3.85Q283.32-3.85 284.7-4.33 286.07-4.8 287.42-5.65L287.42-5.65 289.37-2.05Q287.62-0.9 285.47-0.15 283.32 0.6 280.97 0.6ZM274.42-14.6L274.42-14.6 285.32-14.6Q285.32-17.45 284.1-19.07 282.87-20.7 280.32-20.7L280.32-20.7Q278.12-20.7 276.47-19.15 274.82-17.6 274.42-14.6ZM301.57 0L295.82 0 295.82-24.55 300.57-24.55 300.97-20.2 301.17-20.2Q302.47-22.6 304.32-23.88 306.17-25.15 308.12-25.15L308.12-25.15Q309.87-25.15 310.92-24.65L310.92-24.65 309.92-19.65Q309.27-19.85 308.72-19.95 308.17-20.05 307.37-20.05L307.37-20.05Q305.92-20.05 304.32-18.93 302.72-17.8 301.57-15L301.57-15 301.57 0Z" opacity="1" transform="matrix(1,0,0,1,0,0)" fill="#ffffff" class="slogan-text-1" data-fill-palette-color="secondary" id="text-1"></path></svg></g></svg></g></svg></g></svg></g><g transform="matrix(1,0,0,1,75.92204159999999,0)"><svg viewBox="0 0 245.65351679999995 211.91240917135403" height="211.91240917135403" width="245.65351679999995"><g><svg xmlns="http://www.w3.org/2000/svg" xmlns:xlink="http://www.w3.org/1999/xlink" version="1.1" x="0" y="0" viewBox="0.507 7.136 98.51299999999999 84.982" enable-background="new 0 0 100 100" xml:space="preserve" height="211.91240917135403" width="245.65351679999995" class="icon-icon-0" data-fill-palette-color="accent" id="icon-0"><g fill="#ffffff" data-fill-palette-color="accent"><path d="M22.048 42.728L25.829 47.455 38.642 65.239A0.42 0.42 0 0 0 38.849 65.402L23.004 90.852 15.187 44.39zM0.507 55.422A0.9 0.9 0 0 1 0.708 54.928L12.118 40.129A0.635 0.635 0 0 1 12.785 39.889L21.121 41.797C21.362 41.887 21.356 41.907 21.425 41.978L14.778 43.589C14.538 43.65 14.484 43.67 14.343 43.778zM19.537 87.812L15.759 82.927A0.4 0.4 0 0 1 15.694 82.816L18.169 81.769zM21.713 88.462C21.429 88.598 21.039 88.784 20.647 88.749L18.907 81.064C18.842 80.779 18.578 80.646 18.309 80.757L15.982 81.742C16.602 80.805 17.908 79.713 18.311 79.263L13.357 50.91 1.485 55.936A1.1 1.1 0 0 1 1.16 56.018L14.382 44.89zM37.129 61.631L46.048 53.846 39.311 64.665zM39.486 86.967L23.765 92.118C30.733 86.326 39.638 78.907 47.736 72.148zM98.23 86.475L40.604 86.768 49.525 70.742zM99.02 85.784L50.25 70.055A46403 46403 0 0 0 69.246 54.201zM49.038 69.889A0.4 0.4 0 0 0 48.934 70.001 13656 13656 0 0 1 24.16 90.65L46.208 55.246zM60.498 60.363L49.812 69.277 47.014 54.795zM55.514 57.355L47.55 54.066 56.358 55.515zM79.921 8.222C79.813 9.295 74.361 58.34 74.361 58.34L69.605 53.3A0.464 0.464 0 0 0 69.001 53.262L61.246 59.737C61.207 59.702 56.319 57.694 56.319 57.694L63.139 42.826C63.143 42.824 79.249 9.773 79.921 8.222M32.224 7.136C32.33 7.194 32.434 7.285 32.531 7.413L60.976 45.447 56.734 54.694 45.979 52.923A0.9 0.9 0 0 0 45.62 53.027L43.274 55.084zM26.009 46.159L31.351 7.717C31.364 7.633 31.381 7.557 31.407 7.489L42.525 55.736 36.616 60.917z" fill="#ffffff" data-fill-palette-color="accent"></path></g></svg></g></svg></g><g></g></svg></g><defs></defs></svg><rect width="231.94037713620236" height="247.2" fill="none" stroke="none" visibility="hidden"></rect></g></svg></g></svg>